<?xml version="1.0" encoding="UTF-8"?>
<svg width="34px" height="37px" viewBox="0 0 34 37" version="1.1" xmlns="http://www.w3.org/2000/svg" xmlns:xlink="http://www.w3.org/1999/xlink">
    <title>Group 7</title>
    <defs>
        <filter id="filter-1">
            <feColorMatrix in="SourceGraphic" type="matrix" values="0 0 0 0 0.000000 0 0 0 0 0.000000 0 0 0 0 0.000000 0 0 0 1.000000 0"></feColorMatrix>
        </filter>
        <polygon id="path-2" points="0 0.0983114539 26.4565123 0.0983114539 26.4565123 35.2666235 0 35.2666235"></polygon>
        <polygon id="path-4" points="0.127624184 0.0171168904 25.1489866 0.0171168904 25.1489866 20.8641539 0.127624184 20.8641539"></polygon>
    </defs>
    <g id="Homepage" stroke="none" stroke-width="1" fill="none" fill-rule="evenodd">
        <g id="Group-7" transform="translate(-825.000000, -2990.000000)" filter="url(#filter-1)">
            <g transform="translate(825.734204, 2990.096043)">
                <g id="Group-3" transform="translate(0.000000, 0.057172)">
                    <mask id="mask-3" fill="white">
                        <use xlink:href="#path-2"></use>
                    </mask>
                    <g id="Clip-2"></g>
                    <path d="M12.8727681,35.2666235 C8.2018825,35.2666235 4.35844198,33.2960427 2.05073085,29.718267 C-0.306073899,26.0646759 -0.662468764,21.1273486 1.14249878,17.1400451 C3.71478726,11.4573026 8.69670275,5.10433884 11.0909492,2.05121247 C11.7162714,1.25375177 12.2103149,0.623924053 12.3717335,0.372241542 C12.4741155,0.212687258 12.6462539,0.111548175 12.8353265,0.0995854875 C13.0228455,0.0871567216 13.2077234,0.166234745 13.3293699,0.311806667 C13.3703848,0.360744933 17.4760723,5.27927372 21.0701607,10.427424 C21.2583012,10.6971282 21.1924287,11.0681268 20.9227245,11.2562673 C20.653331,11.4447184 20.2820216,11.3785353 20.0938812,11.1089864 C17.2540635,7.04120666 14.0901658,3.11558092 12.9018204,1.66421177 C12.6743739,1.96141463 12.3815211,2.33474369 12.0277674,2.78606326 C9.66226251,5.80236941 4.74016046,12.0790516 2.22706397,17.6309814 C0.584602545,21.2592489 0.90806118,25.7505388 3.05109116,29.0729033 C5.13213266,32.2991003 8.62011048,34.0759477 12.8727681,34.0759477 C17.3483668,34.0759477 21.1992645,32.007335 23.4381514,28.4008178 C25.4826834,25.1068841 25.8257173,21.0033717 24.3122043,17.946672 C24.1663217,17.6519549 24.2868807,17.2947832 24.5814425,17.149056 C24.8761596,17.0027072 25.2331759,17.1237324 25.3790586,17.4182941 C27.0971801,20.8882502 26.7410959,25.337127 24.4496976,29.0287812 C21.9889573,32.9929361 17.7692358,35.2666235 12.8727681,35.2666235" id="Fill-1" fill="#000000" mask="url(#mask-3)"></path>
                </g>
                <g id="Group-6" transform="translate(6.680462, 4.717960)">
                    <mask id="mask-5" fill="white">
                        <use xlink:href="#path-4"></use>
                    </mask>
                    <g id="Clip-5"></g>
                    <path d="M6.88331472,20.8641539 C6.7215854,20.8641539 6.56669191,20.7982815 6.45436693,20.6814511 L0.293893708,14.2779955 C0.0659812115,14.0412275 0.0732831115,13.6643252 0.310206463,13.4362573 C0.547129815,13.2085002 0.924187504,13.2158021 1.15194464,13.4527254 L6.86855556,19.3947631 L24.1109826,0.214536037 C24.3308164,-0.0299999339 24.7072527,-0.0501966787 24.9516333,0.169792479 C25.1961693,0.389626278 25.2162106,0.766062528 24.9963768,1.01044314 L7.32608951,20.6666919 C7.21547349,20.7897367 7.05871568,20.8612021 6.89341309,20.8641539 C6.88999518,20.8641539 6.88657727,20.8641539 6.88331472,20.8641539" id="Fill-4" fill="#000000" mask="url(#mask-5)"></path>
                </g>
            </g>
        </g>
    </g>
</svg>