<?xml version="1.0" encoding="UTF-8"?>
<svg width="39px" height="36px" viewBox="0 0 39 36" version="1.1" xmlns="http://www.w3.org/2000/svg" xmlns:xlink="http://www.w3.org/1999/xlink">
    <title>Group 3</title>
    <defs>
        <filter id="filter-1">
            <feColorMatrix in="SourceGraphic" type="matrix" values="0 0 0 0 0.000000 0 0 0 0 0.000000 0 0 0 0 0.000000 0 0 0 1.000000 0"></feColorMatrix>
        </filter>
        <polygon id="path-2" points="-3.10950317e-16 0 37.7524809 0 37.7524809 34.5580323 -3.10950317e-16 34.5580323"></polygon>
    </defs>
    <g id="Homepage" stroke="none" stroke-width="1" fill="none" fill-rule="evenodd">
        <g id="Group-3" transform="translate(-1217.000000, -2990.000000)" filter="url(#filter-1)">
            <g transform="translate(1217.839363, 2990.959993)">
                <mask id="mask-3" fill="white">
                    <use xlink:href="#path-2"></use>
                </mask>
                <g id="Clip-2"></g>
                <path d="M36.5653187,8.45092145 C36.4066072,9.95774725 35.9827541,11.367479 35.299361,12.6390383 C34.6197023,13.9087304 33.6861051,15.0402502 32.5265775,16.0037224 C31.5892459,16.7804753 30.504406,17.450798 29.2981985,17.997886 C28.198421,18.4964268 27.1938705,18.7970451 26.5272821,18.9669598 L33.5703391,5.99929532 C33.7178474,5.73228653 33.6188861,5.39619155 33.3500101,5.25241759 C33.0848686,5.10677644 32.7487736,5.20573774 32.6049996,5.47274652 L25.6179585,18.3358481 C25.3994968,17.6972677 25.132488,16.7786081 24.9532373,15.6975026 C24.73851,14.3867322 24.6936973,13.1058369 24.8206665,11.8940278 C24.9793781,10.3872019 25.4050984,8.97747024 26.0884915,7.70404372 C26.7681502,6.43621879 27.6998802,5.30283184 28.861275,4.34122677 C29.7967394,3.56260674 30.8834465,2.89228399 32.089654,2.34519605 C33.540464,1.68794366 34.8157577,1.37052062 35.4842132,1.23421544 C35.7362845,1.85785834 36.1750751,3.08273781 36.4327479,4.64744664 C36.6474753,5.95821704 36.692288,7.23724514 36.5653187,8.45092145 M37.5343926,4.46446159 C37.1385474,2.06511691 36.3543258,0.431321886 36.3207163,0.36410289 L36.1433328,0 L35.7437532,0.054148635 C35.6690655,0.0653518008 33.8653558,0.321157421 31.6564649,1.31637199 C30.3550305,1.902671 29.1786981,2.62714239 28.1629444,3.46924703 C26.8820491,4.52607901 25.8550922,5.775232 25.1026129,7.17562773 C24.3520008,8.57789066 23.883335,10.1239275 23.7096859,11.7763945 C23.5733807,13.0890321 23.6200606,14.4688887 23.8515927,15.8786204 C24.1466094,17.6580566 24.6563534,19.0229756 24.9121591,19.6335482 L17.7290625,32.8551511 L1.03447823,2.1976877 C0.888837069,1.93254611 0.554609288,1.83358481 0.285733307,1.97922597 C0.0205917151,2.12299993 -0.0783695833,2.45909491 0.0672715729,2.72610369 L17.2454592,34.2723516 C17.3425533,34.449735 17.5274056,34.5580323 17.7290625,34.5580323 C17.9325867,34.5580323 18.1155718,34.449735 18.2126659,34.2704844 L25.8233499,20.2609255 C26.1202338,20.2105112 26.7457439,20.0854092 27.5654422,19.8389395 C28.3029839,19.6148762 29.0311897,19.3422659 29.7313876,19.02671 C31.0309548,18.4422782 32.2072872,17.7159396 33.2249081,16.8757022 C34.5039362,15.8151358 35.5308931,14.56785 36.2833724,13.1674543 C37.0339845,11.7651913 37.5026503,10.2172873 37.6762994,8.56668749 C37.8144717,7.25404989 37.7677919,5.8741933 37.5343926,4.46446159" id="Fill-1" fill="#020303" mask="url(#mask-3)"></path>
            </g>
        </g>
    </g>
</svg>