<?xml version="1.0" encoding="UTF-8"?>
<svg width="206px" height="61px" viewBox="0 0 206 61" version="1.1" xmlns="http://www.w3.org/2000/svg" xmlns:xlink="http://www.w3.org/1999/xlink">
    <title>medecins-sans-frontieres-doctors-without-borders-logo-vector</title>
    <g id="DWB" stroke="none" stroke-width="1" fill="none" fill-rule="evenodd">
        <g id="Anatomy-x-DWB---VD" transform="translate(-853.000000, -251.000000)">
            <g id="medecins-sans-frontieres-doctors-without-borders-logo-vector" transform="translate(853.899867, 251.571061)">
                <path d="M49.1613111,32.8153414 C48.8878499,32.5418802 49.2296764,32.5418802 49.468955,32.4393323 C50.4944344,32.0633231 56.6131282,30.1149122 61.9456212,28.7134237 C67.2781142,27.3119352 74.9350272,25.6711681 76.0972372,25.5002549 C76.5416116,25.3635243 76.7467075,25.5002549 76.985986,25.876264 C77.2594472,26.3206384 77.8747348,27.8930402 78.0798307,29.0894328 C78.3532919,30.6276519 78.0798307,32.2342364 77.9431001,32.6444281 C77.8063695,32.952072 77.3619951,32.952072 76.3365157,33.2938984 C75.6870454,33.4989943 73.0549816,34.114282 71.9611368,34.4561084 C70.7305615,34.8321176 67.3806621,35.7892317 66.1500868,36.1994235 C64.680233,36.7121632 62.6634568,37.3616335 62.6634568,37.3616335 L52.1010188,37.5667293 C52.1010188,37.5667293 51.9642882,36.8488938 51.8275576,36.7805285 C51.7591923,36.7121632 51.5540964,36.4045193 51.5199138,36.2677887 C51.4515485,36.1994235 51.3148179,35.8234143 51.3148179,35.8234143 C51.3148179,35.8234143 51.2464526,35.4474052 51.1780873,35.3790399 C51.109722,35.3106746 50.8704435,34.7979349 50.8020782,34.7295696 C50.7337129,34.6612043 50.4944344,34.4219258 50.4260691,34.2851952 C50.3577038,34.1484646 50.2893385,34.011734 50.1184252,33.9091861 C49.9816947,33.7724555 49.8107814,33.533177 49.6740508,33.4648117 C49.5715029,33.2597158 49.4347723,33.0546199 49.1613111,32.8153414" id="Path" fill="#ED1C24" fill-rule="nonzero"></path>
                <path d="M21.4391842,51.7183453 C22.0202892,51.4107015 23.3192298,50.6928659 23.490143,50.5561353 C23.7636042,50.4194047 23.8661521,50.4194047 23.8661521,50.48777 C23.8661521,50.7954138 23.8661521,51.3765188 24.2421613,51.5132494 C24.3788919,51.5816147 24.6181704,51.3765188 24.6865357,51.5132494 C24.8232663,51.7183453 24.8232663,51.7183453 24.8916316,51.7867106 C24.9599969,51.8550759 25.1650927,51.7867106 25.1650927,51.8550759 C25.3018233,51.9234412 25.1650927,52.0601718 25.233458,52.1285371 C25.3701886,52.2652677 25.5069192,52.0601718 25.6094672,52.0601718 C25.814563,52.1285371 25.814563,52.2652677 25.814563,52.3678156 C25.7461977,52.5729115 25.8829283,52.7438247 26.1905722,52.4361809 C26.395668,52.2994503 26.395668,52.3678156 26.498216,52.2994503 C26.5665813,52.231085 26.7716772,52.231085 26.8058598,52.2994503 C26.8742251,52.3678156 27.0109557,52.5045462 27.079321,52.5045462 C27.2160516,52.5729115 27.3527822,52.5045462 27.4553301,52.5729115 C27.5920607,52.6412768 27.5920607,52.8463727 27.7287913,52.8463727 C27.8655219,52.8463727 27.9338872,52.6412768 28.0364351,52.7096421 C28.241531,52.914738 27.8313392,53.2223818 28.1048004,53.2907471 C28.241531,53.3591124 28.3098963,53.2223818 28.4124442,53.2223818 C28.5149922,53.2223818 28.6175401,53.0856512 28.6859054,53.0856512 C28.7542707,53.0856512 28.8910013,53.2223818 28.9593666,53.1540165 C29.0960972,53.0856512 29.1644625,53.0856512 29.2328278,53.0172859 C29.3695584,52.9489206 29.5062889,52.9489206 29.5404716,52.8805553 C29.6088369,52.81219 29.5404716,52.6070941 29.8481154,52.6070941 C30.1215766,52.6754594 29.7797501,52.914738 29.9164807,52.9831033 C29.984846,53.0514686 30.2241245,52.9831033 30.2924898,52.9831033 C30.4292204,52.914738 30.6001337,52.7096421 30.6001337,52.6070941 C30.668499,52.4703635 30.9077775,51.9576238 30.9761428,51.7867106 C31.0445081,51.64998 31.2837866,51.068875 31.4205172,50.8979618 C31.5572478,50.7270485 32.0699875,49.9408477 32.0699875,49.8041171 C32.1383528,49.6673865 32.3434487,49.4964732 32.3434487,49.4281079 C32.411814,49.3597426 32.4801793,49.0520988 32.6169098,48.7786376 C32.7536404,48.5051765 33.0612843,47.9924368 33.1296496,47.9582541 C33.1296496,47.8898888 33.4372934,47.2404185 33.5056587,47.0695053 C33.574024,46.8644094 33.9500331,46.420035 34.0183984,46.2491217 C34.0867637,46.0440259 34.3260422,45.5996514 34.3260422,45.5996514 L34.5995034,45.2236423 C34.5995034,45.2236423 34.6678687,45.0185464 34.8045993,44.8476332 C34.9413299,44.574172 35.2489737,44.1297976 35.317339,43.9588844 C35.3857043,43.7537885 35.6933481,43.4461447 35.6933481,43.4461447 L35.898444,43.0017703 L36.0351746,42.6941264 C36.0351746,42.6941264 36.1719052,42.3181173 36.2402705,42.1813867 C36.3086358,42.0446561 36.5137316,41.8053776 36.5479143,41.668647 C36.6162796,41.5319164 36.8213755,40.8824461 36.8555581,40.7115329 C36.8897408,40.5406197 37.4366631,39.6860535 37.4366631,39.5493229 L38.0177681,38.3871129 C38.0861334,38.182017 38.0861334,38.0111038 38.1544987,37.8743732 C38.222864,37.7376426 38.4279599,37.498364 38.4279599,37.4299988 C38.4279599,37.3616335 38.7356037,36.6096152 38.803969,36.4728846 C38.8723343,36.336154 38.8723343,36.1652408 39.0090649,36.1652408 C39.1457955,36.1652408 39.2141608,36.3019714 39.3167087,36.438702 C39.385074,36.5754326 39.5901699,36.5754326 39.6927178,36.6437979 C39.8294484,36.7805285 40.1370922,37.1565376 40.2054575,37.2249029 C40.2054575,37.2932682 40.4105534,37.2932682 40.4789187,37.3616335 C40.547284,37.4299988 40.547284,37.5667293 40.6156493,37.6350946 C40.6840146,37.6350946 40.9916584,37.9085558 41.0600237,37.9427385 C41.128389,38.0111038 41.1967543,38.2161996 41.2651196,38.2503823 C41.3334849,38.3187476 41.709494,38.5238435 41.7778593,38.6263914 C41.8462246,38.6947567 42.3589643,39.344227 42.4273296,39.4467749 C42.4956949,39.5493229 42.5640602,39.7544188 42.5640602,39.8227841 C42.6324255,39.8911494 42.8375214,40.0278799 42.8375214,40.0962452 C42.8375214,40.1646105 42.8375214,40.4722544 42.9058867,40.5406197 C42.974252,40.6089849 43.1793479,40.7457155 43.2135305,40.8140808 C43.2135305,40.8824461 43.3502611,41.19009 43.4186264,41.2584552 L43.6237223,41.4635511 C43.6920876,41.5319164 43.6920876,41.8395603 43.7604529,41.9079255 C43.8288182,41.9762908 43.9655487,42.2155694 44.033914,42.3523 C44.1022793,42.4890305 44.2390099,42.6599438 44.3073752,42.7283091 C44.3073752,42.7966744 44.3757405,43.1043182 44.3757405,43.2410488 C44.4441058,43.3777794 44.5808364,43.5486926 44.5808364,43.6170579 C44.5808364,43.6854232 44.6492017,43.8905191 44.6492017,43.8905191 L44.7859323,44.1981629 C44.7859323,44.1981629 44.9226629,44.5058067 44.9226629,44.574172 C44.9226629,44.7109026 44.9226629,44.8476332 44.9910282,44.8818159 C44.9910282,44.9501812 45.1277587,45.155277 45.1277587,45.1894597 C45.1277587,45.257825 45.3328546,45.6338341 45.3328546,45.6338341 C45.3328546,45.6338341 45.2644893,45.9414779 45.3328546,46.0098432 C45.3328546,46.0782085 45.5379505,46.317487 45.5379505,46.3858523 C45.5379505,46.4542176 45.4695852,46.6593135 45.4695852,46.6593135 L45.5379505,46.7960441 C45.5379505,46.7960441 45.4695852,47.00114 45.5379505,47.0695053 L45.5379505,47.3429665 C45.6063158,47.4113318 45.7430464,47.7189756 45.7430464,47.7189756 C45.6746811,47.8557062 39.1116128,50.8637791 36.3428184,52.1627197 C32.2750834,54.0427653 23.9345174,58.2814136 23.011586,58.7941533 C22.1228371,59.306893 21.5417321,59.6145368 21.3366363,59.5119889 C20.8238965,59.2385277 20.0376957,58.5548748 19.4565907,56.982473 C19.0122162,55.6835324 19.0122162,54.5896877 19.0122162,54.076948 C19.0122162,53.7009389 19.0122162,53.3591124 19.6616865,52.9831033 C19.6958692,52.7438247 20.8580792,52.0943544 21.4391842,51.7183453 M9.88544942,28.6108758 C9.88544942,28.6792411 10.0905453,28.6792411 10.1589106,28.6792411 C10.2272759,28.6792411 10.2956412,28.8159716 10.3640065,28.8159716 L10.5007371,28.8159716 C10.6374677,28.8843369 10.5691024,29.0210675 10.6374677,29.0894328 C10.705833,29.1577981 10.705833,29.362894 10.8425635,29.362894 C10.9792941,29.362894 11.0476594,29.362894 11.1160247,29.4996246 C11.1160247,29.5679899 11.0476594,29.7730858 11.1160247,29.8756337 C11.3211206,30.1832775 11.1160247,31.0378437 11.3211206,31.106209 C11.4578512,31.1745743 11.9705909,31.0378437 12.1073215,30.8327478 C12.3124174,30.6960172 12.4833306,30.4567387 12.6200612,30.3883734 C12.8935224,30.2516428 13.3378968,30.0123643 13.5771753,30.0123643 C13.8506365,29.943999 13.8848191,29.6363552 14.1582803,29.5679899 C14.3633762,29.5679899 14.2950109,29.362894 14.4659242,29.2945287 C14.6026547,29.2261634 14.9102986,29.0894328 14.9786639,29.1577981 C15.0470292,29.2261634 15.1153945,29.362894 15.252125,29.362894 C15.4572209,29.4312593 15.6281342,29.362894 15.6281342,29.5679899 C15.6964995,29.8414511 16.0725086,29.5679899 16.0725086,29.5679899 C16.0725086,29.5679899 16.5852483,29.2603461 16.7903442,29.1236155 C16.99544,29.0552502 17.5765451,28.7476063 17.5765451,28.7476063 C17.5765451,28.7476063 18.0209195,28.4741452 18.2260154,28.4399625 C25.3018233,25.0216978 30.8394122,23.1758348 35.9326266,21.227424 C44.033914,18.1509857 57.8095209,14.5959904 60.4415847,13.9465201 C60.7150459,13.8781548 61.3303336,13.7414242 61.3986988,13.7414242 C61.4670641,13.6730589 61.6037947,13.6730589 61.67216,13.4337804 C61.7405253,13.1603192 61.5354294,12.8526754 61.5354294,12.7159448 C61.5354294,12.5792142 61.8088906,12.0664745 61.8430733,11.8955612 C61.8430733,11.6904654 61.6379774,11.6221001 61.6379774,11.6221001 L61.6379774,11.1777257 C61.5696121,10.9726298 61.2619683,10.8017165 61.193603,10.6649859 C61.1252377,10.5282554 61.193603,10.0155156 61.1252377,9.87878506 C61.0568724,9.74205447 60.8517765,9.60532388 60.8517765,9.60532388 C60.8517765,9.60532388 60.9201418,9.53695859 60.8517765,9.400228 C60.7834112,9.26349741 60.6466806,9.26349741 60.6466806,9.26349741 C60.6466806,9.26349741 60.7150459,8.95585358 60.6466806,8.88748829 C60.6466806,8.7507577 60.4415847,8.6823924 60.4415847,8.6823924 C60.4415847,8.6823924 60.2364888,8.54566182 60.2364888,8.40893123 C60.2364888,8.27220064 60.2364888,8.20383534 60.0997582,8.13547005 C60.031393,8.06710475 59.7237491,8.06710475 59.6553838,8.06710475 C59.5870185,8.06710475 59.34774,7.99873946 59.2110094,7.99873946 C59.0742788,7.99873946 59.0059135,8.13547005 58.5615391,8.27220064 C58.1171647,8.34056593 57.9120688,8.27220064 57.7411556,8.27220064 C57.5702424,8.27220064 57.3651465,8.40893123 57.0916853,8.47729652 C54.9723612,9.05840152 45.196124,11.8955612 37.9835855,14.5959904 C31.2837866,16.9887757 23.3192298,20.6463189 18.4311112,23.1416522 C14.773568,25.0900631 12.7567918,26.1839078 12.0047735,26.6966475 C11.5603991,26.9701087 11.1160247,27.2777525 11.0476594,27.4144831 C10.9109288,27.619579 10.7741982,27.8588575 10.603285,27.9272228 C10.2956412,27.9955881 10.3298238,28.1323187 10.2956412,28.200684 C10.1589106,28.200684 10.02218,28.3374146 9.98799736,28.4741452 C9.81708412,28.4399625 9.81708412,28.5766931 9.88544942,28.6108758 M40.2396402,24.2696796 C39.9319964,24.0645837 40.0345443,23.8936704 40.4447361,23.7569398 C42.7691561,22.7998257 48.6827541,20.6805016 52.0326535,19.5866569 C54.9381785,18.6979081 62.83437,16.1000269 65.0904247,15.4847392 C65.6031645,15.3480086 65.8766256,15.3480086 66.0475389,15.6214698 C66.6286439,16.2709401 67.2097489,17.0913236 67.7908539,18.1851683 C68.3035936,19.1422825 68.747968,20.5779537 68.8846986,21.4667025 C69.0214292,22.1161728 68.6796027,22.2529034 68.3719589,22.3554513 C65.9108083,23.449296 59.8262971,26.0813599 57.2967812,27.3119352 C54.8356306,28.4741452 50.3577038,30.6618346 48.8194847,31.4138528 C48.1700144,31.7214967 48.3067449,31.8582272 47.8623705,31.3454875 C47.7256399,31.208757 47.5547267,30.8327478 47.4863614,30.7643825 C47.4179961,30.6960172 46.5976126,29.943999 46.460882,29.8072684 C46.3925167,29.7389031 45.879777,29.1577981 45.7430464,29.0210675 C45.6063158,28.9527022 45.2303067,28.3715972 45.0935761,28.3032319 C44.9568455,28.2348666 44.7859323,28.0981361 44.6492017,28.0297708 C44.5808364,27.9614055 44.3757405,27.7221269 44.3415579,27.7221269 C44.2731926,27.6537616 44.033914,27.4486658 44.033914,27.4486658 L43.7262702,27.1410219 L43.452809,26.8675607 C43.452809,26.8675607 43.2477131,26.5940996 43.0767999,26.5599169 C42.9400693,26.4915516 42.7007908,26.2522731 42.6324255,26.1839078 C42.5640602,26.1155425 42.0513205,25.4660722 41.812042,25.295159 C41.5385808,25.1584284 40.9916584,24.714054 40.8549278,24.6456887 C40.6840146,24.5089581 40.4789187,24.3722275 40.2396402,24.2696796 M36.4453663,12.4766663 C36.1377225,12.4766663 35.8642613,12.4766663 35.795896,12.408301 C35.7275308,12.3399357 35.795896,12.2715704 35.7275308,12.2032051 C35.6591655,12.1348398 35.5224349,12.1348398 35.4540696,12.2032051 C35.3857043,12.2715704 35.3857043,12.2715704 35.317339,12.2715704 C35.1806084,12.3399357 34.8045993,12.1348398 34.6678687,12.2032051 C34.5311381,12.2715704 34.2234943,12.2715704 34.155129,12.2032051 C34.0183984,12.1348398 34.0183984,11.8955612 33.8474852,11.827196 C33.7791199,11.7588307 33.471476,11.6221001 33.4031107,11.4511868 C33.3347454,11.2460909 33.0954669,11.0751777 33.0271016,10.9384471 C32.9587363,10.8017165 32.890371,10.6308033 32.8220057,10.562438 C32.7536404,10.4940727 32.6852751,10.2547942 32.6169098,10.1864289 L32.411814,9.981333 C32.3434487,9.91296771 32.2750834,9.67368918 32.2067181,9.60532388 C32.2067181,9.53695859 32.0699875,9.46859329 32.0699875,9.400228 C32.0016222,9.3318627 32.0016222,9.26349741 32.0016222,9.12676682 C31.9332569,9.05840152 31.8648916,8.92167094 31.7965263,8.81912299 C31.7965263,8.7507577 31.728161,8.1696527 31.728161,7.79364358 C31.728161,7.34926916 31.728161,7.00744269 31.7965263,6.83652945 C31.8648916,6.63143357 31.9332569,6.52888563 32.0016222,6.32378974 C32.0699875,6.11869386 32.2750834,5.53758886 32.309266,5.29831033 C32.3776313,5.02484915 32.5143619,4.51210944 32.5827272,4.3411962 C32.6510925,4.13610032 32.8561884,3.6917259 32.890371,3.55499532 C32.9587363,3.41826473 33.3347454,2.83715972 33.471476,2.73461178 C33.6082066,2.5295159 34.2576769,1.91422825 34.4285902,1.77749766 C34.5653207,1.64076707 34.9413299,1.40148854 35.0780605,1.33312324 C35.1464257,1.26475795 35.5908002,0.957114123 35.7275308,0.888748829 C35.8642613,0.820383534 36.0009919,0.820383534 36.0009919,0.820383534 L36.1377225,0.683652945 C36.1377225,0.683652945 36.2060878,0.615287651 36.3428184,0.546922356 C36.4111837,0.478557062 36.6162796,0.478557062 36.6162796,0.478557062 C36.6162796,0.478557062 36.8897408,0.273461178 37.060654,0.341826473 C37.1973846,0.341826473 37.2657499,0.136730589 37.3341152,0.136730589 C37.4708458,0 37.8468549,0 37.8468549,0 C37.9152202,0.0683652945 37.9835855,0.136730589 38.1544987,0.136730589 C38.3595946,0.205095884 38.4621425,0.136730589 38.5988731,0.136730589 C38.7356037,0.136730589 38.803969,0.273461178 38.8723343,0.341826473 C38.9406996,0.341826473 39.7610831,1.16221001 39.8978137,1.36730589 C39.966179,1.43567119 39.966179,1.57240177 39.966179,1.64076707 C40.0345443,1.70913236 40.1712749,1.77749766 40.2396402,2.01677619 C40.2396402,2.15350678 40.4447361,2.22187207 40.4447361,2.4611506 C40.4447361,2.59788119 40.7181973,2.73461178 40.8207452,3.04225561 C40.8207452,3.1106209 40.8891105,3.41826473 40.8891105,3.41826473 C40.8891105,3.48663002 40.9574758,3.48663002 41.0258411,3.62336061 C41.0942064,3.7600912 41.0942064,3.89682179 41.0942064,3.99936973 C41.0942064,4.13610032 41.2993023,4.58047473 41.2993023,4.88811856 C41.2993023,5.19576238 41.230937,5.46922356 41.1625717,5.70850209 C41.0942064,5.91359798 41.1625717,6.35797239 41.0942064,6.52888563 C41.0258411,6.69979886 40.8891105,7.10999063 40.8891105,7.24672122 C40.8891105,7.38345181 40.5131014,8.27220064 40.4447361,8.34056593 C40.3763708,8.40893123 40.1712749,8.85330564 40.068727,8.99003623 C40.0003617,9.12676682 39.2483434,10.0838809 39.1116128,10.2889768 C38.9748822,10.4257074 38.6672384,10.6649859 38.5988731,10.7333512 C38.5305078,10.8700818 38.4621425,11.0068124 38.3254119,11.1777257 C38.1886814,11.4511868 38.0177681,11.2460909 37.8810375,11.3828215 C37.7443069,11.5879174 37.5050284,11.6562827 37.4366631,11.7588307 C37.3682978,11.9639265 37.1632019,12.1348398 37.1290193,12.2032051 C37.0264713,12.3741183 36.6162796,12.4766663 36.4453663,12.4766663 M15.3204903,43.411962 C15.3204903,43.411962 12.2440521,44.4374414 11.0134768,44.8818159 C9.85126677,45.257825 8.55232618,45.7021994 7.73194264,46.1123912 C6.70646322,46.5567656 4.82641762,47.2746012 4.38204321,47.4455144 C3.66420762,47.7189756 3.42492909,47.582245 3.2198332,47.1378706 C3.01473732,46.7618615 2.5703629,45.83893 2.33108437,44.8818159 C2.0576232,43.8563364 2.02344055,43.0701356 2.02344055,42.7624917 C2.02344055,42.4206653 2.29690173,41.9421082 2.67291085,41.668647 C3.04891997,41.4635511 3.97185144,40.8824461 4.68968703,40.506437 C6.02281028,39.7202361 10.8083809,37.1565376 13.611358,35.755049 C16.5852483,34.2168299 21.3366363,31.8924099 23.8319695,30.6618346 C26.3614854,29.4312593 30.5317684,27.4486658 31.0445081,27.1752046 C31.5572478,26.9701087 32.0699875,26.7308302 32.3434487,26.7308302 C32.6169098,26.7308302 32.4801793,26.8675607 32.4801793,26.935926 C32.4801793,27.0042913 32.411814,27.0726566 32.3434487,27.2435699 C32.3434487,27.4486658 32.3434487,27.619579 32.2750834,27.8246749 C32.2067181,28.0297708 32.0016222,28.200684 32.0016222,28.3374146 C32.0016222,28.4741452 31.9332569,28.9185196 31.7965263,29.0552502 C31.6597957,29.1919808 31.2154213,30.0807296 31.147056,30.4567387 C31.0786907,30.8327478 30.8394122,31.5505834 30.7710469,31.687314 L30.3266725,32.5760628 C30.3266725,32.7811587 30.0532113,33.2255331 30.0190287,33.3964464 C29.9506634,33.6015423 29.5746542,34.2851952 29.5062889,34.4219258 C29.4379237,34.5586564 29.1986451,35.3790399 29.1302798,35.5157705 C29.0619145,35.6525011 28.822636,36.0285102 28.822636,36.0285102 L28.6859054,36.5412499 C28.6859054,36.5412499 28.3782616,37.0539896 28.3782616,37.1223549 C28.3782616,37.1907202 28.1048004,38.0794691 28.0022525,38.2845649 C27.8655219,38.4896608 27.2844169,39.8227841 27.1818689,40.3013411 C27.0451383,40.7457155 26.8742251,41.4635511 26.8058598,41.6002817 C26.7374945,41.7370123 26.4298507,42.3181173 26.3614854,42.4890305 C26.2931201,42.6941264 26.0538416,43.6512406 25.917111,43.7879711 C25.8487457,43.993067 25.6094672,44.5058067 25.6094672,44.67672 C25.6094672,44.8476332 25.4043713,45.257825 25.3018233,45.6338341 C25.1650927,45.9414779 24.9941795,46.5909482 24.8574489,46.7960441 C24.7890836,47.00114 24.652353,47.1720532 24.5839877,47.3087838 C24.5839877,47.4455144 24.5156224,47.7531582 24.5156224,47.8898888 C24.5156224,47.9582541 24.4472572,48.16335 24.4472572,48.16335 C24.3105266,48.2317153 15.9015953,51.8208933 14.67102,52.4019983 C13.4404447,52.9831033 4.96314821,57.0166556 4.38204321,57.2901168 C3.8693035,57.563578 3.15146791,58.0763177 2.6387282,57.7344912 C1.92089261,57.2901168 1.30560496,56.3330027 0.827047894,55.4100712 C0.451038774,54.6922356 0.0408470067,53.4616603 0.00666435947,52.6412768 C-0.0617009351,51.5474321 0.382673479,51.3423362 1.95507525,50.4535874 C2.74127614,50.0092129 8.89415265,46.7960441 10.8425635,45.7705647 C11.3553033,45.5654688 15.3204903,43.411962 15.3204903,43.411962" id="Shape" fill="#ED1C24" fill-rule="nonzero"></path>
                <path d="M129.217071,39.3100444 L127.91813,44.5058067 L127.849765,44.5058067 L126.61919,39.3100444 L124.089674,39.3100444 L122.072898,47.3429665 L123.884578,47.3429665 L125.217701,42.2155694 L126.516642,47.3429665 L128.977792,47.3429665 L131.028751,39.3100444 M117.936797,43.3435967 L119.338286,41.0191767 L119.475017,43.3435967 L117.936797,43.3435967 Z M118.517902,39.3100444 C116.774587,42.0104735 115.031272,44.7109026 113.253775,47.2746012 L115.578195,47.2746012 L116.979683,45.0185464 L119.440834,45.0185464 L119.577564,47.3429665 L121.833619,47.3429665 C121.560158,44.7109026 121.252514,41.9421082 121.047418,39.3784096 L118.517902,39.3784096 L118.517902,39.3100444 Z M133.694998,41.4977338 C133.831728,41.0533594 134.412833,40.9166288 134.720477,40.9166288 C135.369948,40.9166288 135.677591,41.0533594 136.121966,41.2926379 C136.121966,41.2926379 136.497975,39.6860535 136.497975,39.6176882 C135.848505,39.2416791 135.164852,39.1733138 134.549564,39.1733138 C132.703701,39.1733138 131.712404,40.2671585 131.507308,41.2242726 C131.131299,43.0701356 133.353171,44.1297976 133.113893,44.9501812 C132.908797,45.5996514 132.327692,45.5996514 131.951683,45.5996514 C131.370578,45.5996514 130.789473,45.3945556 130.276733,45.155277 L129.832359,47.0353226 C130.413464,47.2404185 131.302212,47.4113318 131.951683,47.4113318 C134.139372,47.4113318 134.857208,46.4542176 135.028121,45.3603729 C135.609226,43.5486926 133.455719,42.5232132 133.694998,41.4977338 M112.330843,41.4977338 C112.467574,41.0533594 113.048679,40.9166288 113.356323,40.9166288 C114.005793,40.9166288 114.313437,41.0533594 114.757811,41.2926379 C114.757811,41.2926379 115.270551,39.7544188 115.270551,39.6860535 C114.552715,39.2416791 113.800697,39.1733138 113.253775,39.1733138 C111.407912,39.1733138 110.416615,40.2671585 110.211519,41.2242726 C109.83551,43.0701356 112.057382,44.1297976 111.818104,44.9501812 C111.613008,45.5996514 111.031903,45.5996514 110.655894,45.5996514 C110.074789,45.5996514 109.493684,45.3945556 108.980944,45.155277 L108.536569,47.0353226 C109.117674,47.2404185 110.006423,47.4113318 110.655894,47.4113318 C112.843583,47.4113318 113.561419,46.4542176 113.732332,45.3603729 C114.279254,43.5486926 112.023199,42.5232132 112.330843,41.4977338 M166.817983,44.5058067 L165.587408,39.3100444 L163.057892,39.3100444 L161.006933,47.2746012 L162.852796,47.2746012 L164.151737,42.1813867 L164.220102,42.1813867 L165.519042,47.2746012 L167.980193,47.2746012 L170.031152,39.3100444 L168.151106,39.3100444 M143.334504,41.0533594 L146.410943,41.0533594 L146.786952,39.3100444 L141.659555,39.3100444 L139.642778,47.2746012 L141.693737,47.2746012 L142.514121,44.1297976 L145.077819,44.1297976 L145.453828,42.4548479 L142.924313,42.4548479 M176.730951,39.3100444 L170.748987,39.3100444 L170.304613,41.0533594 L172.253024,41.0533594 L170.646439,47.3087838 L172.765764,47.3087838 L174.372348,41.0533594 L176.320759,41.0533594 M177.448786,39.3100444 L175.397827,47.2746012 L177.517152,47.2746012 L179.56811,39.3100444 M184.319498,44.1297976 L184.763873,42.4548479 L182.131809,42.4548479 L182.439453,41.0533594 L185.789352,41.0533594 L186.233727,39.3100444 L180.764503,39.3100444 L178.747727,47.2746012 L184.148585,47.2746012 L184.59296,45.5996514 L181.24306,45.5996514 L181.619069,44.1297976 M197.821644,44.1297976 L198.197653,42.4548479 L195.497224,42.4548479 L195.873233,41.0533594 L199.223133,41.0533594 L199.667507,39.3100444 L194.198283,39.3100444 L192.147325,47.2746012 L197.616548,47.2746012 L198.060923,45.5996514 L194.745206,45.5996514 L195.121215,44.1297976 M159.16107,43.3094141 C158.853426,44.6083547 157.862129,45.7021994 156.631554,45.7021994 C155.332614,45.7021994 155.02497,44.5399894 155.332614,43.3094141 C155.640257,42.0788388 156.563189,40.9166288 157.862129,40.9166288 C159.126887,40.9166288 159.502896,42.0104735 159.16107,43.3094141 M158.340686,39.1733138 C155.947901,39.1733138 153.965308,40.6431676 153.247472,43.2752314 C152.529636,45.9072953 153.828577,47.3771491 156.221362,47.3771491 C158.477417,47.3771491 160.460011,46.0782085 161.246212,43.4461447 C161.99823,40.7115329 160.699289,39.1733138 158.340686,39.1733138 M202.197023,41.4977338 C202.333754,41.1217247 202.914859,40.9166288 203.222502,40.9166288 C203.871973,40.9166288 204.179616,41.0533594 204.623991,41.2926379 C204.623991,41.2926379 205,39.6860535 205,39.6176882 C204.35053,39.2416791 203.666877,39.1733138 203.051589,39.1733138 C201.205726,39.1733138 200.214429,40.2671585 200.009333,41.2242726 C199.70169,43.0701356 201.889379,44.1297976 201.615918,44.9501812 C201.410822,45.5996514 200.829717,45.5996514 200.453708,45.5996514 C199.872603,45.5996514 199.291498,45.3945556 198.778758,45.155277 L198.334384,47.0353226 C198.915489,47.2404185 199.804238,47.4113318 200.453708,47.4113318 C202.641397,47.4113318 203.359233,46.4542176 203.530146,45.3603729 C204.145434,43.4803273 201.889379,42.4548479 202.197023,41.4977338 M151.0256,43.8221538 C152.119445,43.6170579 152.871463,42.6599438 153.144924,41.771195 C153.520933,40.1646105 153.076559,39.3100444 151.333244,39.3100444 L147.709883,39.3100444 L145.658924,47.2746012 L147.675701,47.2746012 L149.282285,40.9508114 L150.307764,40.9508114 C150.615408,40.9508114 151.264879,40.9508114 151.0256,41.771195 C150.888869,42.4206653 150.37613,42.7966744 149.487381,42.7966744 L148.70118,42.7966744 L149.419016,47.2404185 L151.67507,47.2404185 C151.777618,47.2746012 151.059783,43.9247017 151.0256,43.8221538 M190.574923,43.8221538 C191.668768,43.6170579 192.420786,42.6599438 192.694247,41.771195 C193.070256,40.1646105 192.625882,39.3100444 190.882567,39.3100444 L187.293389,39.3100444 L185.24243,47.2746012 L187.259206,47.2746012 L188.86579,40.9508114 L189.89127,40.9508114 C190.198914,40.9508114 190.848384,40.9508114 190.609106,41.771195 C190.40401,42.4206653 189.959635,42.7966744 189.070886,42.7966744 L188.353051,42.7966744 L189.070886,47.2404185 L191.326941,47.2404185 C191.326941,47.2746012 190.643288,43.9247017 190.574923,43.8221538 M80.1307895,47.2746012 L80.5067987,45.5996514 L77.2252645,45.5996514 L77.5329084,44.1297976 L80.3017028,44.1297976 L80.6777119,42.4548479 L77.9772828,42.4548479 L78.3532919,41.0533594 L81.7031913,41.0533594 L82.0792004,39.3100444 L76.6783422,39.3100444 L74.6273833,47.2746012 M66.0133562,47.2746012 L66.3893653,45.5996514 L63.1420139,45.5996514 L63.4496577,44.1297976 L66.1500868,44.1297976 L66.5944612,42.4548479 L63.8940321,42.4548479 L64.2700412,41.0533594 L67.5515754,41.0533594 L67.9959498,39.3100444 L62.5950915,39.3100444 L60.5441327,47.2746012 M84.6087163,47.4113318 C84.9847255,47.4113318 86.0102049,47.2746012 86.6596752,47.1378706 L87.1724149,45.2920076 C86.5229446,45.4971035 85.8734743,45.5996514 85.0530908,45.5996514 C83.7541502,45.5996514 83.4465063,44.4374414 83.7541502,43.2068661 C84.0276113,42.1130214 84.9847255,40.8140808 86.6596752,40.8140808 C87.1724149,40.8140808 87.6851546,40.9508114 88.1978943,41.1217247 L88.6422687,39.3100444 C88.129529,39.1049485 87.3433281,39.0365832 86.7964058,39.0365832 C84.4036205,39.0365832 82.3526616,40.506437 81.7031913,43.1385008 C81.0195384,45.9414779 82.2501137,47.4113318 84.6087163,47.4113318 M89.8386614,47.2746012 L91.8896202,39.3100444 L89.7702961,39.3100444 L87.7193372,47.2746012 M54.3912562,41.6344644 L54.4596215,41.6344644 L54.3228909,47.3087838 L56.1345712,47.3087838 L58.9717309,41.5660991 L57.5702424,47.3087838 L59.3135574,47.3087838 L61.3645162,39.344227 L58.5273565,39.344227 L56.0662059,44.3348935 L56.2029365,39.3100444 L53.2290461,39.3100444 L51.1780873,47.2746012 L52.9897676,47.2746012 M92.9150996,47.2746012 L94.2482229,42.1813867 L95.5471635,47.2746012 L98.0083141,47.2746012 L100.059273,39.3100444 L98.2134099,39.3100444 L96.9144694,44.5058067 L96.8461041,44.5058067 L95.6155288,39.3100444 L93.0860129,39.3100444 L91.0692367,47.2746012 M72.7815204,43.3094141 C72.4738766,44.4716241 71.6193104,45.6338341 70.4571004,45.6338341 L69.5683515,45.6338341 L70.7305615,41.0533594 L71.756041,41.0533594 C72.918251,41.0533594 73.1575295,41.8053776 72.7815204,43.3094141 M74.9008445,43.3094141 C75.721228,39.9595147 73.9437304,39.3100444 72.9524336,39.3100444 L69.1581598,39.3100444 L67.1072009,47.2746012 L70.4571004,47.2746012 C72.7815204,47.2746012 74.2513742,45.5996514 74.9008445,43.3094141 M102.691337,41.4977338 C102.828067,41.0533594 103.409172,40.9166288 103.716816,40.9166288 C104.366286,40.9166288 104.67393,41.0533594 105.118305,41.2926379 C105.118305,41.2926379 105.494314,39.6860535 105.494314,39.6176882 C104.844844,39.2416791 104.161191,39.1733138 103.648451,39.1733138 C101.802588,39.1733138 100.811291,40.2671585 100.606195,41.2242726 C100.298551,43.0701356 102.452058,44.1297976 102.21278,44.9501812 C102.007684,45.5996514 101.426579,45.5996514 101.05057,45.5996514 C100.469465,45.5996514 99.8883597,45.3945556 99.37562,45.155277 L98.9312455,47.0353226 C99.5123505,47.2404185 100.401099,47.4113318 101.05057,47.4113318 C103.238259,47.4113318 103.956095,46.4542176 104.127008,45.3603729 C104.605565,43.5486926 102.34951,42.5232132 102.691337,41.4977338" id="Shape" fill="#000000" fill-rule="nonzero"></path>
                <line x1="50.1867905" y1="49.5306559" x2="204.042886" y2="49.5306559" id="Path" stroke="#ED1C24" stroke-width="0.7502"></line>
                <path d="M95.9573552,53.7693041 C96.0940858,53.3249297 96.6751908,53.1881991 96.9828346,53.1881991 C97.6323049,53.1881991 97.9399488,53.3249297 98.3843232,53.5642083 C98.3843232,53.5642083 98.7603323,51.9576238 98.7603323,51.8892585 C98.110862,51.5132494 97.4272091,51.4448841 96.9144694,51.4448841 C95.0686064,51.4448841 94.0773096,52.5387288 93.8722137,53.495843 C93.4962046,55.3417059 95.7180767,56.401368 95.4787982,57.2217515 C95.2737023,57.8712218 94.6925973,57.8712218 94.3165882,57.8712218 C93.7354832,57.8712218 93.1543782,57.6661259 92.6416384,57.4268474 L92.197264,59.306893 C92.778369,59.5119889 93.6671179,59.6829021 94.3165882,59.6829021 C96.5042776,59.6829021 97.2221132,58.725788 97.3930264,57.6319433 C97.8715835,55.820263 95.6838941,54.7947836 95.9573552,53.7693041 M78.3874745,51.64998 L72.4738766,51.64998 L72.0295021,53.3249297 L73.977913,53.3249297 L72.3713286,59.6487195 L74.4906527,59.6487195 L76.0972372,53.3249297 L78.0456481,53.3249297 M90.5906796,56.0937242 C91.6845243,55.8886283 92.4365426,54.9315142 92.7100037,54.0427653 C93.0860129,52.4361809 92.6416384,51.5816147 90.8983234,51.5816147 L87.3433281,51.5816147 L85.2923693,59.5461715 L87.3091455,59.5461715 L88.9157299,53.2223818 L89.9412093,53.2223818 C90.2488531,53.2223818 90.8983234,53.2223818 90.6590449,54.0427653 C90.453949,54.6922356 90.0095746,55.0682447 89.1208258,55.0682447 L88.3346249,55.0682447 L89.0524605,59.5119889 L91.3085152,59.5119889 C91.3085152,59.6145368 90.5906796,56.29882 90.5906796,56.0937242 M67.6883059,59.7854501 C68.0643151,59.7854501 69.0897945,59.7170848 69.7050821,59.5803542 L70.2178218,57.7003086 C69.5683515,57.9054045 68.9872465,57.9737698 68.166863,57.9737698 C66.8679224,57.9737698 66.5602786,56.8115598 66.8679224,55.5809845 C67.1413836,54.4871397 68.0984977,53.1881991 69.7734474,53.1881991 C70.2861871,53.1881991 70.7989268,53.3249297 71.3116666,53.495843 L71.756041,51.6841627 C71.2433013,51.4790668 70.4571004,51.4107015 69.910178,51.4107015 C67.5173927,51.4107015 65.4664339,52.8805553 64.8169636,55.5126192 C64.0307627,58.2814136 65.3297033,59.7854501 67.6883059,59.7854501 M53.53669,55.6493497 C53.2290461,56.8115598 52.37448,57.9737698 51.21227,57.9737698 L50.4260691,57.9737698 L51.5882791,53.393295 L52.4770279,53.393295 C53.6734206,53.3249297 53.9126991,54.1794959 53.53669,55.6493497 M55.6218315,55.6493497 C56.442215,52.2994503 54.6647173,51.64998 53.6734206,51.64998 L50.0842426,51.64998 L48.0332838,59.6145368 L51.1780873,59.6145368 C53.4683247,59.6145368 55.0407265,57.9737698 55.6218315,55.6493497 M61.193603,51.4790668 C58.8691829,51.4790668 56.8865894,52.9489206 56.2371191,55.5809845 C55.5876488,58.2130483 56.8182241,59.6829021 59.1426441,59.6829021 C61.3303336,59.6829021 63.3129271,58.3839615 64.0307627,55.7518977 C64.7827809,53.0856512 63.518023,51.4790668 61.193603,51.4790668 Z M62.1165344,55.717715 C61.7405253,57.0166556 60.7150459,58.0421351 59.4844706,57.9737698 C58.18553,57.9054045 57.9462515,56.7431945 58.3222606,55.5126192 C58.6982697,54.2820439 59.6553838,53.1881991 60.9543244,53.2565644 C62.1848997,53.3249297 62.4925436,54.4187744 62.1165344,55.717715 Z M82.6261228,51.4790668 C80.3017028,51.4790668 78.3191092,52.9489206 77.6696389,55.5809845 C77.0201686,58.2130483 78.2507439,59.6829021 80.575164,59.6829021 C82.7628534,59.6829021 84.7454469,58.3839615 85.4632825,55.7518977 C86.2153008,53.0856512 84.9505428,51.4790668 82.6261228,51.4790668 Z M83.5832369,55.717715 C83.2072278,57.0166556 82.1817484,58.0421351 80.9511731,57.9737698 C79.6522325,57.9054045 79.412954,56.7431945 79.7889631,55.5126192 C80.1649722,54.2820439 81.1220863,53.1881991 82.4210269,53.2565644 C83.5832369,53.3249297 83.9250634,54.4187744 83.5832369,55.717715 Z M113.424688,51.64998 L111.373729,59.6145368 L113.493053,59.6145368 L115.509829,51.64998 M152.427089,51.64998 L146.513491,51.64998 L146.069116,53.3249297 L148.017527,53.3249297 L146.410943,59.6487195 L148.530267,59.6487195 L150.068486,53.3249297 L152.016897,53.3249297 M122.175446,51.64998 L116.261848,51.64998 L115.817473,53.3249297 L117.765884,53.3249297 L116.1593,59.6487195 L118.278624,59.6487195 L119.885208,53.3249297 L121.731071,53.3249297 M141.112632,51.64998 L139.950422,56.2304547 C139.642778,57.3926648 139.745326,58.1105003 140.736623,58.1105003 C141.693737,58.1105003 142.138112,57.3926648 142.479938,56.2304547 L143.642148,51.64998 L145.829838,51.64998 L144.428349,57.0508383 C143.915609,58.9992492 142.309025,59.7512674 140.326431,59.7512674 C138.343838,59.7512674 137.113263,58.9650665 137.626002,57.0508383 L139.027491,51.64998 L141.112632,51.64998 L141.112632,51.64998 Z M112.67267,51.64998 L109.18604,59.6145368 L106.86162,59.6145368 L107.237629,54.658053 L107.169264,54.658053 L105.323401,59.6145368 L103.135711,59.6145368 L103.340807,51.64998 L105.152487,51.64998 L104.879026,57.2559342 L106.929985,51.64998 L108.980944,51.64998 L108.536569,57.2559342 L108.604935,57.2559342 L110.929355,51.64998 M122.961647,51.64998 L124.978423,51.64998 L124.192222,54.6238703 L126.75592,54.6238703 L127.542121,51.64998 L129.558897,51.64998 L127.507939,59.6145368 L125.491162,59.6145368 L126.311546,56.2646374 L123.747847,56.2646374 L122.927464,59.6145368 L120.910688,59.6145368 M134.207738,51.4790668 C131.883318,51.4790668 129.900724,52.9489206 129.251254,55.5809845 C128.601783,58.2130483 129.832359,59.6829021 132.156779,59.6829021 C134.344468,59.6829021 136.327062,58.3839615 137.044897,55.7518977 C137.831098,53.0856512 136.532158,51.4790668 134.207738,51.4790668 L134.207738,51.4790668 Z M135.096486,55.717715 C134.720477,57.0166556 133.694998,58.0421351 132.464423,57.9737698 C131.165482,57.9054045 130.926203,56.7431945 131.302212,55.5126192 C131.678222,54.2820439 132.635336,53.1881991 133.934276,53.2565644 C135.164852,53.3249297 135.506678,54.4187744 135.096486,55.717715 Z M182.644549,55.6493497 C182.336905,56.8115598 181.482339,57.9737698 180.320129,57.9737698 L179.533928,57.9737698 L180.696138,53.393295 L181.584887,53.393295 C182.781279,53.3249297 183.05474,54.1794959 182.644549,55.6493497 M184.798055,55.6493497 C185.618439,52.2994503 183.840941,51.64998 182.849645,51.64998 L179.260467,51.64998 L177.209508,59.6145368 L180.354311,59.6145368 C182.644549,59.6145368 184.114403,57.9737698 184.798055,55.6493497 M201.034813,53.7693041 C201.171544,53.3249297 201.752649,53.1881991 202.060292,53.1881991 C202.709763,53.1881991 203.017406,53.3249297 203.461781,53.5642083 C203.461781,53.5642083 203.83779,51.9576238 203.83779,51.8892585 C203.18832,51.5132494 202.504667,51.4448841 201.991927,51.4448841 C200.111881,51.4448841 199.154767,52.5387288 198.949671,53.495843 C198.573662,55.3417059 200.795534,56.401368 200.556256,57.2217515 C200.35116,57.8712218 199.770055,57.8712218 199.394046,57.8712218 C198.812941,57.8712218 198.231836,57.6661259 197.719096,57.4268474 L197.274722,59.306893 C197.855827,59.5119889 198.744576,59.6829021 199.394046,59.6829021 C201.581735,59.6829021 202.299571,58.725788 202.470484,57.6319433 C203.051589,55.820263 200.795534,54.7947836 201.034813,53.7693041 M196.21506,56.0937242 C197.308904,55.8886283 198.060923,54.9315142 198.334384,54.0427653 C198.710393,52.4361809 198.266018,51.5816147 196.522703,51.5816147 L193.036073,51.5816147 L190.985115,59.5461715 L193.001891,59.5461715 L194.608475,53.2223818 L195.633955,53.2223818 C195.941598,53.2223818 196.591069,53.2223818 196.35179,54.0427653 C196.146694,54.6922356 195.70232,55.0682447 194.813571,55.0682447 L194.02737,55.0682447 L194.745206,59.5119889 L197.001261,59.5119889 C197.001261,59.6145368 196.21506,56.29882 196.21506,56.0937242 M175.500375,56.0937242 C176.59422,55.8886283 177.346238,54.9315142 177.6197,54.0427653 C177.995709,52.4361809 177.551334,51.5816147 175.808019,51.5816147 L172.253024,51.5816147 L170.202065,59.5461715 L172.218841,59.5461715 L173.825426,53.2223818 L174.850905,53.2223818 C175.158549,53.2223818 175.808019,53.2223818 175.568741,54.0427653 C175.363645,54.6922356 174.91927,55.0682447 174.030522,55.0682447 L173.244321,55.0682447 L173.962156,59.5119889 L176.218211,59.5119889 C176.286576,59.6145368 175.568741,56.29882 175.500375,56.0937242 M189.857087,59.6145368 L190.233096,57.8712218 L186.951562,57.8712218 L187.259206,56.4697333 L190.028,56.4697333 L190.40401,54.7264183 L187.70358,54.7264183 L188.07959,53.3249297 L191.429489,53.3249297 L191.805498,51.64998 L186.40464,51.64998 L184.353681,59.6145368 M158.545782,54.7947836 L158.921791,54.7947836 C159.502896,54.7947836 160.220732,54.8631489 160.460011,53.8376694 C160.665106,53.1881991 160.015636,53.1881991 159.502896,53.1881991 L158.921791,53.1881991 L158.545782,54.7947836 Z M157.691216,58.0421351 L158.409052,58.0421351 C159.058522,58.0421351 159.639627,58.0421351 159.81054,57.1533862 C160.015636,56.3330027 159.434531,56.3330027 158.921791,56.3330027 L158.135591,56.3330027 L157.691216,58.0421351 Z M157.383572,51.64998 L161.451307,51.64998 C162.032412,51.64998 162.852796,52.1627197 162.476787,53.5983909 C162.203326,54.555505 161.690586,55.2733406 160.733472,55.5468018 C161.553855,55.6835324 161.964047,56.3671853 161.690586,57.4952127 C161.246212,59.2385277 160.152367,59.6145368 158.64833,59.6145368 L155.298431,59.6145368 L157.383572,51.64998 L157.383572,51.64998 Z M167.535819,51.4790668 C165.211399,51.4790668 163.228805,52.9489206 162.579335,55.5809845 C161.929864,58.2130483 163.16044,59.6829021 165.48486,59.6829021 C167.672549,59.6829021 169.655143,58.3839615 170.372978,55.7518977 C171.124997,53.0856512 169.928604,51.4790668 167.535819,51.4790668 Z M168.492933,55.717715 C168.116924,57.0166556 167.091444,58.0421351 165.860869,57.9737698 C164.561928,57.9054045 164.32265,56.7431945 164.698659,55.5126192 C165.074668,54.2820439 166.031782,53.1881991 167.330723,53.2565644 C168.561298,53.3249297 168.834759,54.4187744 168.492933,55.717715 Z" id="Shape" fill="#000000" fill-rule="nonzero"></path>
            </g>
        </g>
    </g>
</svg>