<?xml version="1.0" encoding="UTF-8"?>
<svg width="26px" height="26px" viewBox="0 0 26 26" version="1.1" xmlns="http://www.w3.org/2000/svg" xmlns:xlink="http://www.w3.org/1999/xlink">
    <title>logo-facebook</title>
    <defs>
        <filter id="filter-1">
            <feColorMatrix in="SourceGraphic" type="matrix" values="0 0 0 0 0.000000 0 0 0 0 0.000000 0 0 0 0 0.000000 0 0 0 1.000000 0"></feColorMatrix>
        </filter>
    </defs>
    <g id="Symbols" stroke="none" stroke-width="1" fill="none" fill-rule="evenodd">
        <g id="logo-facebook" transform="translate(-1285.000000, -67.000000)" filter="url(#filter-1)">
            <g transform="translate(1285.842753, 67.021740)">
                <path d="M23.9897781,12.4950841 C23.9887969,5.88798065 18.9927007,0.438076658 12.6207236,0.0933503916 C6.24874644,-0.251375875 0.731391117,4.62974659 0.065498411,11.200772 C-0.600394295,17.7717974 3.81827054,23.7325463 10.1205572,24.7649781 L10.1205572,16.0851662 L7.07541993,16.0851662 L7.07541993,12.4950841 L10.1205572,12.4950841 L10.1205572,9.75824058 C10.1205572,6.64554004 11.9114463,4.92610241 14.6509746,4.92610241 C15.5505825,4.93904185 16.4480725,5.02008158 17.3362652,5.16857336 L17.3362652,8.22511136 L15.8238661,8.22511136 C14.8750917,8.09511983 14.0040016,8.78564048 13.877565,9.76796102 C13.8608897,9.89993005 13.8582664,10.0333967 13.8697423,10.165959 L13.8697423,12.4950841 L17.1964986,12.4950841 L16.6645514,16.0851662 L13.8692207,16.0851662 L13.8692207,24.7649781 C19.6984177,23.8100473 23.9906853,18.6062164 23.9897781,12.4950841 L23.9897781,12.4950841 Z" id="Path" fill="#000000" fill-rule="nonzero"></path>
            </g>
        </g>
    </g>
</svg>