<?xml version="1.0" encoding="UTF-8"?>
<svg width="26px" height="26px" viewBox="0 0 26 26" version="1.1" xmlns="http://www.w3.org/2000/svg" xmlns:xlink="http://www.w3.org/1999/xlink">
    <title>logo-instagram</title>
    <defs>
        <filter id="filter-1">
            <feColorMatrix in="SourceGraphic" type="matrix" values="0 0 0 0 0.000000 0 0 0 0 0.000000 0 0 0 0 0.000000 0 0 0 1.000000 0"></feColorMatrix>
        </filter>
    </defs>
    <g id="Symbols" stroke="none" stroke-width="1" fill="none" fill-rule="evenodd">
        <g id="logo-instagram" transform="translate(-1227.000000, -67.000000)" filter="url(#filter-1)">
            <g transform="translate(1227.922292, 67.021740)">
                <path d="M11.994889,2.23570094 C15.193526,2.23570094 15.5765628,2.2481215 16.8416238,2.30774019 C18.1679172,2.2609361 19.4602712,2.74726367 20.448087,3.66489347 C21.3342682,4.68776467 21.8039286,6.02598148 21.7587286,7.39934207 C21.816304,8.71178133 21.8306979,9.10841124 21.8306979,12.4205608 C21.8306979,15.7327103 21.818703,16.1293402 21.7611275,17.4392954 C21.8063276,18.812656 21.3366672,20.1508728 20.450486,21.173744 C19.4627137,22.091449 18.1703294,22.5777879 16.8440227,22.5308973 C15.5789618,22.5905159 15.1999233,22.6029365 11.9972879,22.6029365 C8.79465258,22.6029365 8.41561409,22.5905159 7.15055314,22.5308973 C5.82425974,22.5777013 4.53190568,22.0913738 3.54408986,21.173744 C2.65783602,20.1509178 2.18816465,18.8126697 2.23344832,17.4392954 C2.17347388,16.1293402 2.15908001,15.7368505 2.15908001,12.4205608 C2.15908001,9.10427105 2.1710749,8.71178133 2.22865037,7.40182619 C2.18345033,6.02846559 2.6531107,4.69024878 3.5392919,3.66737758 C4.52771299,2.74914286 5.82104109,2.26277227 7.14815416,2.3102243 C8.41321511,2.25060561 8.7962519,2.23570094 11.994889,2.23570094 M11.994889,0 C8.73787677,0 8.32925089,0.0140766355 7.04899641,0.0745233647 C5.18110655,0.0398354543 3.37378467,0.76079302 2.01114305,2.0841701 C0.732901269,3.49502656 0.0366164209,5.36658197 0.0703700152,7.30080563 C0.0135942075,8.62483741 0,9.04796451 0,12.4205608 C0,15.793157 0.0135942075,16.2162842 0.0719693337,17.541972 C0.0384702316,19.4761491 0.734719467,21.3476088 2.01274237,22.7586075 C3.37524659,24.0822113 5.18266091,24.8032057 7.05059573,24.7682543 C8.33005055,24.828701 8.73947609,24.8427776 11.9964883,24.8427776 C15.2535005,24.8427776 15.6621263,24.828701 16.9423808,24.7682543 C18.8102707,24.8029422 20.6175926,24.0819846 21.9802342,22.7586075 C23.258476,21.3477511 23.9547608,19.4761957 23.9210072,17.541972 C23.9793823,16.2171122 23.9929765,15.793157 23.9929765,12.4205608 C23.9929765,9.04796451 23.9793823,8.62483741 23.9210072,7.29914955 C23.9545063,5.36497245 23.2582571,3.49351276 21.9802342,2.08251402 C20.61773,0.758910298 18.8103156,0.0379158559 16.9423808,0.0728672899 C15.660527,0.0140766355 15.2519011,0 11.994889,0 Z" id="Shape" fill="#000000" fill-rule="nonzero"></path>
                <path d="M11.994889,6.04467291 C8.59426391,6.04467291 5.83751263,8.89925514 5.83751263,12.4205608 C5.83751263,15.9418664 8.59426391,18.7964486 11.994889,18.7964486 C15.395514,18.7964486 18.1522653,15.9418664 18.1522653,12.4205608 C18.1522653,8.89925514 15.395514,6.04467291 11.994889,6.04467291 Z M11.994889,16.5607477 C9.78669087,16.5607477 7.99659264,14.7071229 7.99659264,12.4205608 C7.99659264,10.1339987 9.78669087,8.28037385 11.994889,8.28037385 C14.203087,8.28037385 15.9931853,10.1339987 15.9931853,12.4205608 C15.9931853,13.5186066 15.5719374,14.5716794 14.8221114,15.348115 C14.0722854,16.1245507 13.0553031,16.5607477 11.994889,16.5607477 Z" id="Shape" fill="#000000" fill-rule="nonzero"></path>
                <ellipse id="Oval" fill="#000000" fill-rule="nonzero" cx="18.3977607" cy="5.79046544" rx="1.43938667" ry="1.49046729"></ellipse>
            </g>
        </g>
    </g>
</svg>