<?xml version="1.0" encoding="UTF-8"?>
<svg width="23px" height="26px" viewBox="0 0 23 26" version="1.1" xmlns="http://www.w3.org/2000/svg" xmlns:xlink="http://www.w3.org/1999/xlink">
    <title>tiktok</title>
    <defs>
        <filter id="filter-1">
            <feColorMatrix in="SourceGraphic" type="matrix" values="0 0 0 0 0.000000 0 0 0 0 0.000000 0 0 0 0 0.000000 0 0 0 1.000000 0"></feColorMatrix>
        </filter>
    </defs>
    <g id="Symbols" stroke="none" stroke-width="1" fill="none" fill-rule="evenodd">
        <g id="tiktok" transform="translate(-1343.000000, -66.000000)" filter="url(#filter-1)">
            <g transform="translate(1343.763214, 66.193703)">
                <path d="M8.9753256,9.55935522 L8.9753256,13.9712419 C7.88935273,13.6746749 6.73208831,13.9040461 5.82864225,14.5949183 C4.92519619,15.2857905 4.37304566,16.3636221 4.32730613,17.5256183 C4.26558451,18.5249723 4.62398609,19.5031828 5.31033147,20.2086582 C5.99667685,20.9141335 6.94398243,21.2780231 7.90860513,21.2067361 C10.5548775,21.2067361 11.4899041,19.2815492 11.4899041,17.4758843 L11.4899041,0 L15.7025591,0 C16.4191288,4.61483348 18.6463048,5.68571871 21.6318826,6.18065218 L21.6318826,10.6021648 C21.6318826,10.6021648 18.0900918,10.3414624 15.8218583,8.57029044 L15.8218583,17.3050239 C15.8195343,21.2572723 13.5567235,25.6691589 7.9403666,25.6691589 C2.72838743,25.6691589 0.0619735929,21.09684 0.0619735929,17.2641137 C0.129194085,14.967194 1.14264071,12.8099102 2.84627767,11.3372755 C4.54991464,9.86464085 6.7807999,9.21750344 8.9753256,9.55935522 Z" id="Path" fill="#000000" fill-rule="nonzero"></path>
            </g>
        </g>
    </g>
</svg>