<?xml version="1.0" encoding="UTF-8"?>
<svg width="37px" height="37px" viewBox="0 0 37 37" version="1.1" xmlns="http://www.w3.org/2000/svg" xmlns:xlink="http://www.w3.org/1999/xlink">
    <title>Group 14</title>
    <defs>
        <filter id="filter-1">
            <feColorMatrix in="SourceGraphic" type="matrix" values="0 0 0 0 0.000000 0 0 0 0 0.000000 0 0 0 0 0.000000 0 0 0 1.000000 0"></feColorMatrix>
        </filter>
        <polygon id="path-2" points="0 0.146502541 5.95504923 0.146502541 5.95504923 7.38670495 0 7.38670495"></polygon>
        <polygon id="path-4" points="0.0193856292 0.0242170321 6.78932148 0.0242170321 6.78932148 9.64621107 0.0193856292 9.64621107"></polygon>
        <polygon id="path-6" points="0.0367756789 0.0768973295 30.5301303 0.0768973295 30.5301303 35.1101953 0.0367756789 35.1101953"></polygon>
    </defs>
    <g id="Homepage" stroke="none" stroke-width="1" fill="none" fill-rule="evenodd">
        <g id="Group-14" transform="translate(-1027.000000, -2990.000000)" filter="url(#filter-1)">
            <g transform="translate(1027.121138, 2990.096043)">
                <g id="Group-3" transform="translate(0.000000, 15.077578)">
                    <mask id="mask-3" fill="white">
                        <use xlink:href="#path-2"></use>
                    </mask>
                    <g id="Clip-2"></g>
                    <path d="M0.87757483,6.38366369 C0.292404909,5.71506954 -3.00087139e-05,4.84271623 -3.00087139e-05,3.76660375 C-3.00087139e-05,2.69064131 0.292404909,1.81813795 0.87757483,1.1495438 C1.46259471,0.480949658 2.22526617,0.146502541 3.16558922,0.146502541 C3.92811065,0.146502541 4.55244194,0.350261709 5.03828302,0.757780044 C5.52397405,1.16514834 5.8296128,1.7084561 5.95504923,2.38740325 L4.7482488,2.38740325 C4.66467453,2.01139407 4.4844722,1.71640841 4.20764182,1.50214619 C3.93081143,1.28803402 3.58331052,1.18090291 3.16558922,1.18090291 C2.5700663,1.18090291 2.09217753,1.42142275 1.73162283,1.90171222 C1.37121817,2.38245182 1.19101585,3.00423237 1.19101585,3.76660375 C1.19101585,4.52942526 1.37121817,5.15090572 1.73162283,5.63134523 C2.09217753,6.11208483 2.5700663,6.35215454 3.16558922,6.35215454 C3.58331052,6.35215454 3.93081143,6.24517347 4.20764182,6.03091126 C4.4844722,5.81709917 4.66467453,5.52166338 4.7482488,5.1456542 L5.95504923,5.1456542 C5.8296128,5.82475139 5.52397405,6.36805916 5.03828302,6.77527741 C4.55244194,7.18279574 3.92811065,7.38670495 3.16558922,7.38670495 C2.22526617,7.38670495 1.46259471,7.05240788 0.87757483,6.38366369" id="Fill-1" fill="#000000" mask="url(#mask-3)"></path>
                </g>
                <path d="M14.2450015,18.6404528 L11.9412325,18.6404528 L11.9412325,17.5746933 L15.4202927,17.5746933 L15.4202927,18.2329345 C15.4202927,19.5077047 15.0520858,20.5314519 14.3155219,21.3044764 C13.5789581,22.077801 12.6203297,22.4641631 11.4399369,22.4641631 C10.1651668,22.4641631 9.10991034,22.0096812 8.2743177,21.1007172 C7.43827493,20.1919033 7.02055363,18.9956059 7.02055363,17.5119751 C7.02055363,16.0389974 7.43827493,14.8455509 8.2743177,13.9311853 C9.10991034,13.0171199 10.1548138,12.5600872 11.4084278,12.5600872 C12.411469,12.5600872 13.2445109,12.8264145 13.9080036,13.3592193 C14.5713462,13.892174 15.0022714,14.6128333 15.200929,15.5219473 L13.9629196,15.5219473 C13.5135391,14.2891893 12.6621918,13.6726603 11.4084278,13.6726603 C10.4682548,13.6726603 9.70813405,14.0252627 9.1283657,14.7304674 C8.54859734,15.4358223 8.25871317,16.3629415 8.25871317,17.5119751 C8.25871317,18.6614589 8.55099804,19.5911289 9.13616796,20.3015852 C9.72118784,21.0121915 10.4891108,21.3671946 11.4399369,21.3671946 C12.2650265,21.3671946 12.9207169,21.1244241 13.406558,20.638433 C13.8923991,20.1525919 14.1717802,19.4866986 14.2450015,18.6404528" id="Fill-4" fill="#000000"></path>
                <polygon id="Fill-6" fill="#000000" points="22.2057431 22.3231222 21.3594974 22.3231222 18.3193146 14.9889925 18.3193146 22.3231222 17.1440233 22.3231222 17.1440233 12.7011282 18.5386783 12.7011282 21.7982248 20.5992716 25.0421667 12.7011282 26.3900081 12.7011282 26.3900081 22.3231222 25.2145668 22.3231222 25.2145668 14.9889925"></polygon>
                <g id="Group-10" transform="translate(28.658322, 12.676881)">
                    <mask id="mask-5" fill="white">
                        <use xlink:href="#path-4"></use>
                    </mask>
                    <g id="Clip-9"></g>
                    <path d="M5.56709657,2.90775435 C5.56709657,2.34344049 5.39709721,1.90231239 5.05769866,1.58346981 C4.71815006,1.26492731 4.22960819,1.105431 3.5925232,1.105431 L1.25754517,1.105431 L1.25754517,4.69417309 L3.5925232,4.69417309 C4.22960819,4.69417309 4.71815006,4.53512691 5.05769866,4.21628433 C5.39709721,3.89774183 5.56709657,3.46156517 5.56709657,2.90775435 M3.62373226,5.79114163 L1.25754517,5.79114163 L1.25754517,9.64621107 L0.0193856292,9.64621107 L0.0193856292,0.0242170321 L3.62373226,0.0242170321 C4.61627047,0.0242170321 5.39199573,0.27253914 5.95105807,0.768433138 C6.50967028,1.26492731 6.78935149,1.9780844 6.78935149,2.90775435 C6.78935149,3.83757436 6.50726958,4.5505814 5.94310576,5.04677548 C5.37894194,5.54311961 4.60576742,5.79114163 3.62373226,5.79114163" id="Fill-8" fill="#000000" mask="url(#mask-5)"></path>
                </g>
                <g id="Group-13" transform="translate(2.250654, 0.073221)">
                    <mask id="mask-7" fill="white">
                        <use xlink:href="#path-6"></use>
                    </mask>
                    <g id="Clip-12"></g>
                    <path d="M30.2435471,8.62450439 L15.5707864,0.154544877 C15.393735,0.0510148137 15.1746714,0.0510148137 14.9961196,0.154544877 L0.323358897,8.62450439 C0.146307485,8.72803445 0.0367756789,8.91708935 0.0367756789,9.12264904 L0.0367756789,10.0319131 C0.0367756789,10.3492552 0.294100401,10.6065799 0.611442551,10.6065799 C0.928784701,10.6065799 1.18610942,10.3492552 1.18610942,10.0319131 L1.18610942,9.78599166 C1.18610942,9.58073205 1.29564123,9.39092694 1.47344286,9.28844718 L14.9968698,1.48183029 C15.1746714,1.37905045 15.393735,1.37905045 15.5715367,1.48183029 L29.0934632,9.28844718 C29.2712648,9.39092694 29.3807966,9.58073205 29.3807966,9.78599166 L29.3807966,10.0319131 C29.3807966,10.3492552 29.6381213,10.6065799 29.9554635,10.6065799 C30.2728056,10.6065799 30.5301303,10.3492552 30.5301303,10.0319131 L30.5301303,9.12264904 C30.5301303,8.91708935 30.4205985,8.72803445 30.2435471,8.62450439 M29.0934632,25.8984204 L15.5715367,33.7063877 C15.393735,33.8091675 15.1746714,33.8091675 14.9968698,33.7063877 L1.47344286,25.8984204 C1.29564123,25.7956405 1.18610942,25.6059855 1.18610942,25.4007259 L1.18610942,25.1548045 C1.18610942,24.8374623 0.928784701,24.5801376 0.611442551,24.5801376 C0.294100401,24.5801376 0.0367756789,24.8374623 0.0367756789,25.1548045 L0.0367756789,26.0655689 C0.0367756789,26.2696282 0.146307485,26.4601835 0.323358897,26.5622131 L14.9961196,35.0336731 C15.0846453,35.0846879 15.183674,35.1103453 15.2842032,35.1103453 C15.383232,35.1103453 15.4822607,35.0846879 15.5707864,35.0336731 L30.2435471,26.5622131 C30.4205985,26.4601835 30.5301303,26.2696282 30.5301303,26.0655689 L30.5301303,25.1548045 C30.5301303,24.8374623 30.2728056,24.5801376 29.9554635,24.5801376 C29.6381213,24.5801376 29.3807966,24.8374623 29.3807966,25.1548045 L29.3807966,25.4007259 C29.3807966,25.6059855 29.2714148,25.7956405 29.0934632,25.8984204" id="Fill-11" fill="#000000" mask="url(#mask-7)"></path>
                </g>
            </g>
        </g>
    </g>
</svg>