<?xml version="1.0" encoding="UTF-8"?>
<svg width="20px" height="20px" viewBox="0 0 20 20" version="1.1" xmlns="http://www.w3.org/2000/svg" xmlns:xlink="http://www.w3.org/1999/xlink">
    <title>star-rate</title>
    <defs>
        <filter id="filter-1">
            <feColorMatrix in="SourceGraphic" type="matrix" values="0 0 0 0 0.949020 0 0 0 0 0.537255 0 0 0 0 0.462745 0 0 0 1.000000 0"></feColorMatrix>
        </filter>
    </defs>
    <g id="Product-Page" stroke="none" stroke-width="1" fill="none" fill-rule="evenodd">
        <g id="Group-3-Copy" transform="translate(-646.000000, -2481.000000)" filter="url(#filter-1)">
            <g transform="translate(646.334743, 2481.223679)" id="star-rate" fill="#444444" fill-rule="nonzero">
                <path d="M18.5884726,7.02009267 L12.0577581,7.02009267 L9.89407162,0.284108535 C9.83835459,0.114583429 9.68008773,0 9.50165044,0 C9.32321314,0 9.16494629,0.114583429 9.10922926,0.284108535 L6.9438905,7.02009267 L0.413175934,7.02009267 C0.236490458,7.02006018 0.0793474247,7.13241183 0.0222158954,7.29961511 C-0.0349156339,7.4668184 0.0206158631,7.65184689 0.16037408,7.75995209 L5.37007504,11.7930327 L3.20225783,18.4592032 C3.14693052,18.6294283 3.20751726,18.8159211 3.35232301,18.9211206 C3.49712877,19.0263201 3.69320611,19.0262906 3.83798014,18.9210474 L9.50082429,14.8069994 L15.1636684,18.9210474 C15.3084425,19.0262906 15.5045198,19.0263201 15.6493256,18.9211206 C15.7941313,18.8159211 15.8547181,18.6294283 15.7993907,18.4592032 L13.6315735,11.7930327 L18.8396222,7.75995209 C18.9791428,7.65203336 19.0347505,7.46742593 18.9780508,7.30039469 C18.921351,7.13336346 18.7648548,7.02076417 18.5884726,7.02009267 Z" id="Path"></path>
            </g>
        </g>
    </g>
</svg>