<?xml version="1.0" encoding="UTF-8"?>
<svg width="160px" height="24px" viewBox="0 0 160 24" version="1.1" xmlns="http://www.w3.org/2000/svg" xmlns:xlink="http://www.w3.org/1999/xlink">
    <title>Group 13</title>
    <defs>
        <polygon id="path-1" points="0.739918367 0.483265306 14.5880816 0.483265306 14.5880816 14.4875918 0.739918367 14.4875918"></polygon>
        <polygon id="path-3" points="0 21.2244898 159.67102 21.2244898 159.67102 0.483265306 0 0.483265306"></polygon>
    </defs>
    <g id="Symbols" stroke="none" stroke-width="1" fill="none" fill-rule="evenodd">
        <g id="Header" transform="translate(-68.000000, -63.000000)">
            <g id="Group-13" transform="translate(68.000000, 63.979592)">
                <path d="M7.6922449,1.8804898 L0,21.5580408 L2.56489796,21.5580408 L4.80653061,15.6298776 L12.9167347,15.6298776 L15.1893878,21.5580408 L17.7542857,21.5580408 L10.0612245,1.8804898 L7.6922449,1.8804898 Z M8.84571429,5.02171429 L12.0506122,13.4192653 L5.64081633,13.4192653 L8.84571429,5.02171429 Z" id="Fill-1" fill="#000000"></path>
                <polygon id="Fill-2" fill="#000000" points="37.9359184 1.8804898 37.9359184 16.8478367 27.4559184 1.8804898 25.0534694 1.8804898 25.0534694 21.5580408 27.4877551 21.5580408 27.4877551 5.91967347 38.4820408 21.5580408 40.3391837 21.5580408 40.3391837 1.8804898"></polygon>
                <path d="M55.3283265,1.8804898 L47.6377143,21.5580408 L50.2001633,21.5580408 L52.4442449,15.6298776 L60.552,15.6298776 L62.827102,21.5580408 L65.389551,21.5580408 L57.6997551,1.8804898 L55.3283265,1.8804898 Z M56.4817959,5.02171429 L59.6858776,13.4192653 L53.276898,13.4192653 L56.4817959,5.02171429 Z" id="Fill-3" fill="#000000"></path>
                <polygon id="Fill-4" fill="#000000" points="69.5490612 1.8804898 69.5490612 4.12457143 76.4070204 4.12457143 76.4070204 21.5580408 78.9376327 21.5580408 78.9376327 4.12457143 85.7955918 4.12457143 85.7955918 1.8804898"></polygon>
                <polygon id="Fill-5" fill="#000000" points="132.950939 1.8804898 126.317469 18.0323265 119.65298 1.8804898 116.800735 1.8804898 116.800735 21.5580408 119.204 21.5580408 119.204 6.55885714 125.41951 21.5580408 127.150122 21.5580408 133.302776 6.55885714 133.302776 21.5580408 135.706041 21.5580408 135.706041 1.8804898"></polygon>
                <polygon id="Fill-6" fill="#000000" points="156.980571 1.8804898 151.307918 11.1743673 145.634449 1.8804898 142.879347 1.8804898 149.992816 13.4494694 149.992816 21.5580408 152.492408 21.5580408 152.492408 13.4494694 159.671184 1.8804898"></polygon>
                <g id="Group-12" transform="translate(0.000000, 0.333306)">
                    <g id="Group-9" transform="translate(92.244898, 0.000000)">
                        <mask id="mask-2" fill="white">
                            <use xlink:href="#path-1"></use>
                        </mask>
                        <g id="Clip-8"></g>
                        <path d="M7.65420408,2.69004082 C5.0517551,2.69004082 3.28767347,4.66555102 3.28767347,7.48432653 C3.28767347,10.303102 5.0517551,12.2802449 7.65420408,12.2802449 C10.2770612,12.2802449 12.0403265,10.303102 12.0403265,7.48432653 C12.0403265,4.66555102 10.2770612,2.69004082 7.65420408,2.69004082 M7.65257143,14.4875918 C3.63379592,14.4875918 0.739918367,11.5839184 0.739918367,7.48432653 C0.739918367,3.3635102 3.63379592,0.482693878 7.65257143,0.482693878 C11.6942041,0.482693878 14.5880816,3.3635102 14.5880816,7.48432653 C14.5880816,11.5839184 11.6942041,14.4875918 7.65257143,14.4875918" id="Fill-7" fill="#000000" mask="url(#mask-2)"></path>
                    </g>
                    <mask id="mask-4" fill="white">
                        <use xlink:href="#path-3"></use>
                    </mask>
                    <g id="Clip-11"></g>
                    <polygon id="Fill-10" fill="#000000" mask="url(#mask-4)" points="97.4269388 21.157551 102.39102 21.157551 102.39102 18.9869388 97.4269388 18.9869388"></polygon>
                </g>
            </g>
        </g>
    </g>
</svg>